<mxfile host="65bd71144e" scale="1" border="10">
    <diagram name="Arquitetura v2" id="lf885K5aGk2sWsDqvKHm">
        <mxGraphModel dx="2432" dy="1192" grid="1" gridSize="10" guides="1" tooltips="1" connect="1" arrows="1" fold="1" page="1" pageScale="1" pageWidth="850" pageHeight="1100" background="#FFFFFF" math="0" shadow="0">
            <root>
                <mxCell id="xNUSOTWQVAQGV8SW1RMr-0"/>
                <mxCell id="xNUSOTWQVAQGV8SW1RMr-1" parent="xNUSOTWQVAQGV8SW1RMr-0"/>
                <mxCell id="47" value="VPC" style="sketch=0;outlineConnect=0;gradientColor=none;html=1;whiteSpace=wrap;fontSize=12;fontStyle=0;shape=mxgraph.aws4.group;grIcon=mxgraph.aws4.group_vpc;strokeColor=#879196;fillColor=none;verticalAlign=top;align=left;spacingLeft=30;fontColor=#879196;dashed=0;" vertex="1" parent="xNUSOTWQVAQGV8SW1RMr-1">
                    <mxGeometry x="244" y="100" width="976" height="1280" as="geometry"/>
                </mxCell>
                <mxCell id="xNUSOTWQVAQGV8SW1RMr-2" value="AWS Cloud" style="sketch=0;outlineConnect=0;gradientColor=none;html=1;whiteSpace=wrap;fontSize=12;fontStyle=0;shape=mxgraph.aws4.group;grIcon=mxgraph.aws4.group_aws_cloud;strokeColor=#AAB7B8;fillColor=none;verticalAlign=top;align=left;spacingLeft=30;fontColor=#AAB7B8;dashed=0;labelBackgroundColor=default;rounded=1;movable=1;resizable=1;rotatable=1;deletable=1;editable=1;connectable=1;" parent="xNUSOTWQVAQGV8SW1RMr-1" vertex="1">
                    <mxGeometry x="-10" y="60" width="1260" height="1340" as="geometry"/>
                </mxCell>
                <mxCell id="xNUSOTWQVAQGV8SW1RMr-4" value="FastFood" style="text;strokeColor=none;fillColor=none;html=1;fontSize=24;fontStyle=1;verticalAlign=middle;align=center;rounded=1;" parent="xNUSOTWQVAQGV8SW1RMr-1" vertex="1">
                    <mxGeometry x="620" y="10" width="100" height="40" as="geometry"/>
                </mxCell>
                <mxCell id="tz8--qCs5J4aisNoZkXS-1" style="edgeStyle=none;html=1;entryX=0;entryY=0.5;entryDx=0;entryDy=0;entryPerimeter=0;" parent="xNUSOTWQVAQGV8SW1RMr-1" source="xNUSOTWQVAQGV8SW1RMr-7" target="tz8--qCs5J4aisNoZkXS-0" edge="1">
                    <mxGeometry relative="1" as="geometry"/>
                </mxCell>
                <mxCell id="xNUSOTWQVAQGV8SW1RMr-7" value="Users" style="sketch=0;pointerEvents=1;shadow=0;dashed=0;html=1;strokeColor=none;labelPosition=center;verticalLabelPosition=bottom;verticalAlign=top;align=center;fillColor=#505050;shape=mxgraph.mscae.intune.user_group;labelBackgroundColor=default;rounded=1;" parent="xNUSOTWQVAQGV8SW1RMr-1" vertex="1">
                    <mxGeometry x="-100" y="410.5" width="50" height="37" as="geometry"/>
                </mxCell>
                <mxCell id="1" style="edgeStyle=none;html=1;entryX=0;entryY=0.5;entryDx=0;entryDy=0;entryPerimeter=0;" edge="1" parent="xNUSOTWQVAQGV8SW1RMr-1" source="xNUSOTWQVAQGV8SW1RMr-9" target="0">
                    <mxGeometry relative="1" as="geometry"/>
                </mxCell>
                <mxCell id="5" style="edgeStyle=orthogonalEdgeStyle;html=1;entryX=0;entryY=0.5;entryDx=0;entryDy=0;entryPerimeter=0;" edge="1" parent="xNUSOTWQVAQGV8SW1RMr-1" source="xNUSOTWQVAQGV8SW1RMr-9" target="3">
                    <mxGeometry relative="1" as="geometry"/>
                </mxCell>
                <mxCell id="6" style="edgeStyle=orthogonalEdgeStyle;html=1;entryX=0;entryY=0.5;entryDx=0;entryDy=0;entryPerimeter=0;" edge="1" parent="xNUSOTWQVAQGV8SW1RMr-1" source="xNUSOTWQVAQGV8SW1RMr-9" target="4">
                    <mxGeometry relative="1" as="geometry"/>
                </mxCell>
                <mxCell id="xNUSOTWQVAQGV8SW1RMr-9" value="Gateway" style="sketch=0;points=[[0,0,0],[0.25,0,0],[0.5,0,0],[0.75,0,0],[1,0,0],[0,1,0],[0.25,1,0],[0.5,1,0],[0.75,1,0],[1,1,0],[0,0.25,0],[0,0.5,0],[0,0.75,0],[1,0.25,0],[1,0.5,0],[1,0.75,0]];outlineConnect=0;fontColor=#232F3E;gradientColor=#945DF2;gradientDirection=north;fillColor=#5A30B5;strokeColor=#ffffff;dashed=0;verticalLabelPosition=bottom;verticalAlign=top;align=center;html=1;fontSize=12;fontStyle=0;aspect=fixed;shape=mxgraph.aws4.resourceIcon;resIcon=mxgraph.aws4.api_gateway;labelBackgroundColor=default;rounded=1;" parent="xNUSOTWQVAQGV8SW1RMr-1" vertex="1">
                    <mxGeometry x="162" y="390" width="78" height="78" as="geometry"/>
                </mxCell>
                <mxCell id="xNUSOTWQVAQGV8SW1RMr-10" value="NLB" style="sketch=0;outlineConnect=0;fontColor=#232F3E;gradientColor=none;fillColor=#4D27AA;strokeColor=none;dashed=0;verticalLabelPosition=bottom;verticalAlign=top;align=center;html=1;fontSize=12;fontStyle=0;aspect=fixed;pointerEvents=1;shape=mxgraph.aws4.network_load_balancer;labelBackgroundColor=default;rounded=1;" parent="xNUSOTWQVAQGV8SW1RMr-1" vertex="1">
                    <mxGeometry x="438" y="390" width="78" height="78" as="geometry"/>
                </mxCell>
                <mxCell id="xNUSOTWQVAQGV8SW1RMr-14" style="rounded=1;html=1;startArrow=classic;startFill=1;endArrow=none;endFill=0;" parent="xNUSOTWQVAQGV8SW1RMr-1" source="xNUSOTWQVAQGV8SW1RMr-15" target="xNUSOTWQVAQGV8SW1RMr-10" edge="1">
                    <mxGeometry relative="1" as="geometry"/>
                </mxCell>
                <mxCell id="9" style="edgeStyle=orthogonalEdgeStyle;html=1;entryX=0;entryY=0.5;entryDx=0;entryDy=0;" edge="1" parent="xNUSOTWQVAQGV8SW1RMr-1" source="xNUSOTWQVAQGV8SW1RMr-15" target="xNUSOTWQVAQGV8SW1RMr-37">
                    <mxGeometry relative="1" as="geometry"/>
                </mxCell>
                <mxCell id="16" style="edgeStyle=orthogonalEdgeStyle;html=1;entryX=0;entryY=0.5;entryDx=0;entryDy=0;" edge="1" parent="xNUSOTWQVAQGV8SW1RMr-1" source="xNUSOTWQVAQGV8SW1RMr-15" target="13">
                    <mxGeometry relative="1" as="geometry"/>
                </mxCell>
                <mxCell id="23" style="edgeStyle=orthogonalEdgeStyle;html=1;entryX=0;entryY=0.5;entryDx=0;entryDy=0;" edge="1" parent="xNUSOTWQVAQGV8SW1RMr-1" source="xNUSOTWQVAQGV8SW1RMr-15" target="10">
                    <mxGeometry relative="1" as="geometry">
                        <Array as="points">
                            <mxPoint x="680" y="429"/>
                            <mxPoint x="680" y="832"/>
                        </Array>
                    </mxGeometry>
                </mxCell>
                <mxCell id="xNUSOTWQVAQGV8SW1RMr-15" value="Ingress" style="sketch=0;html=1;dashed=0;whitespace=wrap;fillColor=#2875E2;strokeColor=#ffffff;points=[[0.005,0.63,0],[0.1,0.2,0],[0.9,0.2,0],[0.5,0,0],[0.995,0.63,0],[0.72,0.99,0],[0.5,1,0],[0.28,0.99,0]];verticalLabelPosition=bottom;align=center;verticalAlign=top;shape=mxgraph.kubernetes.icon;prIcon=ing;labelBackgroundColor=default;rounded=1;" parent="xNUSOTWQVAQGV8SW1RMr-1" vertex="1">
                    <mxGeometry x="580" y="395" width="70.83" height="68" as="geometry"/>
                </mxCell>
                <mxCell id="20" style="edgeStyle=orthogonalEdgeStyle;html=1;entryX=0;entryY=0.5;entryDx=0;entryDy=0;entryPerimeter=0;" edge="1" parent="xNUSOTWQVAQGV8SW1RMr-1" source="xNUSOTWQVAQGV8SW1RMr-20" target="xNUSOTWQVAQGV8SW1RMr-22">
                    <mxGeometry relative="1" as="geometry"/>
                </mxCell>
                <mxCell id="xNUSOTWQVAQGV8SW1RMr-20" value="Order Payment&lt;br&gt;Topic" style="sketch=0;points=[[0,0,0],[0.25,0,0],[0.5,0,0],[0.75,0,0],[1,0,0],[0,1,0],[0.25,1,0],[0.5,1,0],[0.75,1,0],[1,1,0],[0,0.25,0],[0,0.5,0],[0,0.75,0],[1,0.25,0],[1,0.5,0],[1,0.75,0]];outlineConnect=0;fontColor=#232F3E;gradientColor=#FF4F8B;gradientDirection=north;fillColor=#BC1356;strokeColor=#ffffff;dashed=0;verticalLabelPosition=bottom;verticalAlign=top;align=center;html=1;fontSize=12;fontStyle=0;aspect=fixed;shape=mxgraph.aws4.resourceIcon;resIcon=mxgraph.aws4.sns;labelBackgroundColor=default;rounded=1;" parent="xNUSOTWQVAQGV8SW1RMr-1" vertex="1">
                    <mxGeometry x="920" y="662" width="78" height="78" as="geometry"/>
                </mxCell>
                <mxCell id="22" style="edgeStyle=orthogonalEdgeStyle;html=1;entryX=1;entryY=0.25;entryDx=0;entryDy=0;dashed=1;dashPattern=8 8;" edge="1" parent="xNUSOTWQVAQGV8SW1RMr-1" target="10">
                    <mxGeometry relative="1" as="geometry">
                        <mxPoint x="1100" y="681.0000000000002" as="sourcePoint"/>
                        <Array as="points">
                            <mxPoint x="1100" y="797"/>
                        </Array>
                    </mxGeometry>
                </mxCell>
                <mxCell id="xNUSOTWQVAQGV8SW1RMr-22" value="Order Payment&lt;br&gt;Queue" style="sketch=0;points=[[0,0,0],[0.25,0,0],[0.5,0,0],[0.75,0,0],[1,0,0],[0,1,0],[0.25,1,0],[0.5,1,0],[0.75,1,0],[1,1,0],[0,0.25,0],[0,0.5,0],[0,0.75,0],[1,0.25,0],[1,0.5,0],[1,0.75,0]];outlineConnect=0;fontColor=#232F3E;gradientColor=#FF4F8B;gradientDirection=north;fillColor=#BC1356;strokeColor=#ffffff;dashed=0;verticalLabelPosition=bottom;verticalAlign=top;align=center;html=1;fontSize=12;fontStyle=0;aspect=fixed;shape=mxgraph.aws4.resourceIcon;resIcon=mxgraph.aws4.sqs;labelBackgroundColor=default;rounded=1;" parent="xNUSOTWQVAQGV8SW1RMr-1" vertex="1">
                    <mxGeometry x="1060" y="662" width="78" height="78" as="geometry"/>
                </mxCell>
                <mxCell id="xNUSOTWQVAQGV8SW1RMr-28" style="html=1;entryX=0.5;entryY=0;entryDx=0;entryDy=0;startArrow=classic;startFill=1;edgeStyle=orthogonalEdgeStyle;" parent="xNUSOTWQVAQGV8SW1RMr-1" source="xNUSOTWQVAQGV8SW1RMr-29" target="xNUSOTWQVAQGV8SW1RMr-37" edge="1">
                    <mxGeometry relative="1" as="geometry"/>
                </mxCell>
                <mxCell id="xNUSOTWQVAQGV8SW1RMr-29" value="Customers DB" style="sketch=0;points=[[0,0,0],[0.25,0,0],[0.5,0,0],[0.75,0,0],[1,0,0],[0,1,0],[0.25,1,0],[0.5,1,0],[0.75,1,0],[1,1,0],[0,0.25,0],[0,0.5,0],[0,0.75,0],[1,0.25,0],[1,0.5,0],[1,0.75,0]];outlineConnect=0;fontColor=#232F3E;gradientColor=#4D72F3;gradientDirection=north;fillColor=#3334B9;strokeColor=#ffffff;dashed=0;verticalLabelPosition=bottom;verticalAlign=top;align=center;html=1;fontSize=12;fontStyle=0;aspect=fixed;shape=mxgraph.aws4.resourceIcon;resIcon=mxgraph.aws4.rds;labelBackgroundColor=default;rounded=1;spacingTop=-4;" parent="xNUSOTWQVAQGV8SW1RMr-1" vertex="1">
                    <mxGeometry x="750.9999999999999" y="137" width="78" height="78" as="geometry"/>
                </mxCell>
                <mxCell id="xNUSOTWQVAQGV8SW1RMr-37" value="" style="swimlane;startSize=0;" parent="xNUSOTWQVAQGV8SW1RMr-1" vertex="1">
                    <mxGeometry x="710" y="358" width="160" height="142" as="geometry"/>
                </mxCell>
                <mxCell id="xNUSOTWQVAQGV8SW1RMr-38" value="Customer Management" style="sketch=0;html=1;dashed=0;whitespace=wrap;fillColor=#2875E2;strokeColor=#ffffff;points=[[0.005,0.63,0],[0.1,0.2,0],[0.9,0.2,0],[0.5,0,0],[0.995,0.63,0],[0.72,0.99,0],[0.5,1,0],[0.28,0.99,0]];verticalLabelPosition=bottom;align=center;verticalAlign=top;shape=mxgraph.kubernetes.icon;prIcon=pod;labelBackgroundColor=default;rounded=1;" parent="xNUSOTWQVAQGV8SW1RMr-37" vertex="1">
                    <mxGeometry x="52.14000000000002" y="43" width="72.92" height="70" as="geometry"/>
                </mxCell>
                <mxCell id="xNUSOTWQVAQGV8SW1RMr-39" value="HPA" style="sketch=0;html=1;dashed=0;whitespace=wrap;fillColor=#2875E2;strokeColor=#ffffff;points=[[0.005,0.63,0],[0.1,0.2,0],[0.9,0.2,0],[0.5,0,0],[0.995,0.63,0],[0.72,0.99,0],[0.5,1,0],[0.28,0.99,0]];verticalLabelPosition=bottom;align=center;verticalAlign=top;shape=mxgraph.kubernetes.icon;prIcon=hpa" parent="xNUSOTWQVAQGV8SW1RMr-37" vertex="1">
                    <mxGeometry x="15.139999999999986" y="12" width="39.58" height="38" as="geometry"/>
                </mxCell>
                <mxCell id="tz8--qCs5J4aisNoZkXS-2" style="edgeStyle=none;html=1;entryX=0;entryY=0.5;entryDx=0;entryDy=0;entryPerimeter=0;" parent="xNUSOTWQVAQGV8SW1RMr-1" source="tz8--qCs5J4aisNoZkXS-0" target="xNUSOTWQVAQGV8SW1RMr-9" edge="1">
                    <mxGeometry relative="1" as="geometry"/>
                </mxCell>
                <mxCell id="tz8--qCs5J4aisNoZkXS-0" value="WAF" style="sketch=0;points=[[0,0,0],[0.25,0,0],[0.5,0,0],[0.75,0,0],[1,0,0],[0,1,0],[0.25,1,0],[0.5,1,0],[0.75,1,0],[1,1,0],[0,0.25,0],[0,0.5,0],[0,0.75,0],[1,0.25,0],[1,0.5,0],[1,0.75,0]];outlineConnect=0;fontColor=#232F3E;gradientColor=#F54749;gradientDirection=north;fillColor=#C7131F;strokeColor=#ffffff;dashed=0;verticalLabelPosition=bottom;verticalAlign=top;align=center;html=1;fontSize=12;fontStyle=0;aspect=fixed;shape=mxgraph.aws4.resourceIcon;resIcon=mxgraph.aws4.waf;" parent="xNUSOTWQVAQGV8SW1RMr-1" vertex="1">
                    <mxGeometry x="24" y="390" width="78" height="78" as="geometry"/>
                </mxCell>
                <mxCell id="2" style="edgeStyle=none;html=1;" edge="1" parent="xNUSOTWQVAQGV8SW1RMr-1" source="0" target="xNUSOTWQVAQGV8SW1RMr-10">
                    <mxGeometry relative="1" as="geometry"/>
                </mxCell>
                <mxCell id="0" value="Authorizer" style="outlineConnect=0;dashed=0;verticalLabelPosition=bottom;verticalAlign=top;align=center;html=1;shape=mxgraph.aws3.lambda_function;fillColor=#F58534;gradientColor=none;" vertex="1" parent="xNUSOTWQVAQGV8SW1RMr-1">
                    <mxGeometry x="305" y="393" width="69" height="72" as="geometry"/>
                </mxCell>
                <mxCell id="8" style="edgeStyle=orthogonalEdgeStyle;html=1;entryX=0;entryY=0.75;entryDx=0;entryDy=0;entryPerimeter=0;" edge="1" parent="xNUSOTWQVAQGV8SW1RMr-1" source="3" target="xNUSOTWQVAQGV8SW1RMr-29">
                    <mxGeometry relative="1" as="geometry">
                        <Array as="points">
                            <mxPoint x="480" y="300"/>
                            <mxPoint x="480" y="196"/>
                            <mxPoint x="751" y="196"/>
                        </Array>
                    </mxGeometry>
                </mxCell>
                <mxCell id="3" value="Login" style="outlineConnect=0;dashed=0;verticalLabelPosition=bottom;verticalAlign=top;align=center;html=1;shape=mxgraph.aws3.lambda_function;fillColor=#F58534;gradientColor=none;" vertex="1" parent="xNUSOTWQVAQGV8SW1RMr-1">
                    <mxGeometry x="305" y="264" width="69" height="72" as="geometry"/>
                </mxCell>
                <mxCell id="7" style="edgeStyle=orthogonalEdgeStyle;html=1;entryX=0;entryY=0.5;entryDx=0;entryDy=0;entryPerimeter=0;" edge="1" parent="xNUSOTWQVAQGV8SW1RMr-1" source="4" target="xNUSOTWQVAQGV8SW1RMr-29">
                    <mxGeometry relative="1" as="geometry"/>
                </mxCell>
                <mxCell id="4" value="Register" style="outlineConnect=0;dashed=0;verticalLabelPosition=bottom;verticalAlign=top;align=center;html=1;shape=mxgraph.aws3.lambda_function;fillColor=#F58534;gradientColor=none;" vertex="1" parent="xNUSOTWQVAQGV8SW1RMr-1">
                    <mxGeometry x="305" y="140" width="69" height="72" as="geometry"/>
                </mxCell>
                <mxCell id="25" style="edgeStyle=orthogonalEdgeStyle;html=1;exitX=1;exitY=0.75;exitDx=0;exitDy=0;entryX=0;entryY=0.5;entryDx=0;entryDy=0;" edge="1" parent="xNUSOTWQVAQGV8SW1RMr-1" source="10" target="24">
                    <mxGeometry relative="1" as="geometry">
                        <Array as="points">
                            <mxPoint x="960" y="867"/>
                            <mxPoint x="960" y="921"/>
                        </Array>
                    </mxGeometry>
                </mxCell>
                <mxCell id="28" style="edgeStyle=orthogonalEdgeStyle;html=1;exitX=0.5;exitY=1;exitDx=0;exitDy=0;entryX=0;entryY=0.5;entryDx=0;entryDy=0;entryPerimeter=0;" edge="1" parent="xNUSOTWQVAQGV8SW1RMr-1" source="10" target="26">
                    <mxGeometry relative="1" as="geometry"/>
                </mxCell>
                <mxCell id="42" style="edgeStyle=orthogonalEdgeStyle;html=1;exitX=0;exitY=0.75;exitDx=0;exitDy=0;entryX=0;entryY=0.75;entryDx=0;entryDy=0;entryPerimeter=0;" edge="1" parent="xNUSOTWQVAQGV8SW1RMr-1" source="10" target="34">
                    <mxGeometry relative="1" as="geometry">
                        <Array as="points">
                            <mxPoint x="680" y="868"/>
                            <mxPoint x="680" y="1308"/>
                        </Array>
                    </mxGeometry>
                </mxCell>
                <mxCell id="44" style="edgeStyle=orthogonalEdgeStyle;html=1;exitX=1;exitY=0.5;exitDx=0;exitDy=0;entryX=0;entryY=0.25;entryDx=0;entryDy=0;entryPerimeter=0;" edge="1" parent="xNUSOTWQVAQGV8SW1RMr-1" source="10" target="43">
                    <mxGeometry relative="1" as="geometry"/>
                </mxCell>
                <mxCell id="10" value="" style="swimlane;startSize=0;" vertex="1" parent="xNUSOTWQVAQGV8SW1RMr-1">
                    <mxGeometry x="710" y="761" width="160" height="142" as="geometry"/>
                </mxCell>
                <mxCell id="11" value="Payment Management" style="sketch=0;html=1;dashed=0;whitespace=wrap;fillColor=#2875E2;strokeColor=#ffffff;points=[[0.005,0.63,0],[0.1,0.2,0],[0.9,0.2,0],[0.5,0,0],[0.995,0.63,0],[0.72,0.99,0],[0.5,1,0],[0.28,0.99,0]];verticalLabelPosition=bottom;align=center;verticalAlign=top;shape=mxgraph.kubernetes.icon;prIcon=pod;labelBackgroundColor=default;rounded=1;" vertex="1" parent="10">
                    <mxGeometry x="52.14000000000002" y="43" width="72.92" height="70" as="geometry"/>
                </mxCell>
                <mxCell id="12" value="HPA" style="sketch=0;html=1;dashed=0;whitespace=wrap;fillColor=#2875E2;strokeColor=#ffffff;points=[[0.005,0.63,0],[0.1,0.2,0],[0.9,0.2,0],[0.5,0,0],[0.995,0.63,0],[0.72,0.99,0],[0.5,1,0],[0.28,0.99,0]];verticalLabelPosition=bottom;align=center;verticalAlign=top;shape=mxgraph.kubernetes.icon;prIcon=hpa" vertex="1" parent="10">
                    <mxGeometry x="15.139999999999986" y="12" width="39.58" height="38" as="geometry"/>
                </mxCell>
                <mxCell id="18" style="edgeStyle=orthogonalEdgeStyle;html=1;entryX=0;entryY=0.5;entryDx=0;entryDy=0;entryPerimeter=0;" edge="1" parent="xNUSOTWQVAQGV8SW1RMr-1" source="13" target="17">
                    <mxGeometry relative="1" as="geometry"/>
                </mxCell>
                <mxCell id="19" style="edgeStyle=orthogonalEdgeStyle;html=1;entryX=0;entryY=0.5;entryDx=0;entryDy=0;entryPerimeter=0;" edge="1" parent="xNUSOTWQVAQGV8SW1RMr-1" source="13" target="xNUSOTWQVAQGV8SW1RMr-20">
                    <mxGeometry relative="1" as="geometry"/>
                </mxCell>
                <mxCell id="13" value="" style="swimlane;startSize=0;" vertex="1" parent="xNUSOTWQVAQGV8SW1RMr-1">
                    <mxGeometry x="710" y="571" width="160" height="142" as="geometry"/>
                </mxCell>
                <mxCell id="14" value="Order Management" style="sketch=0;html=1;dashed=0;whitespace=wrap;fillColor=#2875E2;strokeColor=#ffffff;points=[[0.005,0.63,0],[0.1,0.2,0],[0.9,0.2,0],[0.5,0,0],[0.995,0.63,0],[0.72,0.99,0],[0.5,1,0],[0.28,0.99,0]];verticalLabelPosition=bottom;align=center;verticalAlign=top;shape=mxgraph.kubernetes.icon;prIcon=pod;labelBackgroundColor=default;rounded=1;" vertex="1" parent="13">
                    <mxGeometry x="52.14000000000002" y="43" width="72.92" height="70" as="geometry"/>
                </mxCell>
                <mxCell id="15" value="HPA" style="sketch=0;html=1;dashed=0;whitespace=wrap;fillColor=#2875E2;strokeColor=#ffffff;points=[[0.005,0.63,0],[0.1,0.2,0],[0.9,0.2,0],[0.5,0,0],[0.995,0.63,0],[0.72,0.99,0],[0.5,1,0],[0.28,0.99,0]];verticalLabelPosition=bottom;align=center;verticalAlign=top;shape=mxgraph.kubernetes.icon;prIcon=hpa" vertex="1" parent="13">
                    <mxGeometry x="15.139999999999986" y="12" width="39.58" height="38" as="geometry"/>
                </mxCell>
                <mxCell id="17" value="Orders DB" style="sketch=0;points=[[0,0,0],[0.25,0,0],[0.5,0,0],[0.75,0,0],[1,0,0],[0,1,0],[0.25,1,0],[0.5,1,0],[0.75,1,0],[1,1,0],[0,0.25,0],[0,0.5,0],[0,0.75,0],[1,0.25,0],[1,0.5,0],[1,0.75,0]];outlineConnect=0;fontColor=#232F3E;gradientColor=#4D72F3;gradientDirection=north;fillColor=#3334B9;strokeColor=#ffffff;dashed=0;verticalLabelPosition=bottom;verticalAlign=top;align=center;html=1;fontSize=12;fontStyle=0;aspect=fixed;shape=mxgraph.aws4.resourceIcon;resIcon=mxgraph.aws4.rds;labelBackgroundColor=default;rounded=1;spacingTop=-4;" vertex="1" parent="xNUSOTWQVAQGV8SW1RMr-1">
                    <mxGeometry x="919.9999999999999" y="552" width="78" height="78" as="geometry"/>
                </mxCell>
                <mxCell id="24" value="External Payment&lt;br&gt;Gateway" style="aspect=fixed;perimeter=ellipsePerimeter;html=1;align=center;shadow=0;dashed=0;spacingTop=3;image;image=img/lib/active_directory/internet_globe.svg;" vertex="1" parent="xNUSOTWQVAQGV8SW1RMr-1">
                    <mxGeometry x="1290" y="890" width="63" height="63" as="geometry"/>
                </mxCell>
                <mxCell id="29" style="edgeStyle=orthogonalEdgeStyle;html=1;entryX=0;entryY=0.5;entryDx=0;entryDy=0;entryPerimeter=0;" edge="1" parent="xNUSOTWQVAQGV8SW1RMr-1" source="26" target="27">
                    <mxGeometry relative="1" as="geometry"/>
                </mxCell>
                <mxCell id="26" value="Order Production&lt;br&gt;Topic" style="sketch=0;points=[[0,0,0],[0.25,0,0],[0.5,0,0],[0.75,0,0],[1,0,0],[0,1,0],[0.25,1,0],[0.5,1,0],[0.75,1,0],[1,1,0],[0,0.25,0],[0,0.5,0],[0,0.75,0],[1,0.25,0],[1,0.5,0],[1,0.75,0]];outlineConnect=0;fontColor=#232F3E;gradientColor=#FF4F8B;gradientDirection=north;fillColor=#BC1356;strokeColor=#ffffff;dashed=0;verticalLabelPosition=bottom;verticalAlign=top;align=center;html=1;fontSize=12;fontStyle=0;aspect=fixed;shape=mxgraph.aws4.resourceIcon;resIcon=mxgraph.aws4.sns;labelBackgroundColor=default;rounded=1;" vertex="1" parent="xNUSOTWQVAQGV8SW1RMr-1">
                    <mxGeometry x="920" y="960" width="78" height="78" as="geometry"/>
                </mxCell>
                <mxCell id="33" style="edgeStyle=orthogonalEdgeStyle;html=1;entryX=1;entryY=0.25;entryDx=0;entryDy=0;dashed=1;dashPattern=8 8;" edge="1" parent="xNUSOTWQVAQGV8SW1RMr-1" source="27" target="30">
                    <mxGeometry relative="1" as="geometry">
                        <Array as="points">
                            <mxPoint x="1100" y="1106"/>
                        </Array>
                    </mxGeometry>
                </mxCell>
                <mxCell id="27" value="Order Production&lt;br&gt;Queue" style="sketch=0;points=[[0,0,0],[0.25,0,0],[0.5,0,0],[0.75,0,0],[1,0,0],[0,1,0],[0.25,1,0],[0.5,1,0],[0.75,1,0],[1,1,0],[0,0.25,0],[0,0.5,0],[0,0.75,0],[1,0.25,0],[1,0.5,0],[1,0.75,0]];outlineConnect=0;fontColor=#232F3E;gradientColor=#FF4F8B;gradientDirection=north;fillColor=#BC1356;strokeColor=#ffffff;dashed=0;verticalLabelPosition=bottom;verticalAlign=top;align=center;html=1;fontSize=12;fontStyle=0;aspect=fixed;shape=mxgraph.aws4.resourceIcon;resIcon=mxgraph.aws4.sqs;labelBackgroundColor=default;rounded=1;" vertex="1" parent="xNUSOTWQVAQGV8SW1RMr-1">
                    <mxGeometry x="1060" y="960" width="78" height="78" as="geometry"/>
                </mxCell>
                <mxCell id="36" style="edgeStyle=orthogonalEdgeStyle;html=1;exitX=0.5;exitY=1;exitDx=0;exitDy=0;entryX=0;entryY=0.5;entryDx=0;entryDy=0;entryPerimeter=0;" edge="1" parent="xNUSOTWQVAQGV8SW1RMr-1" source="30" target="34">
                    <mxGeometry relative="1" as="geometry"/>
                </mxCell>
                <mxCell id="46" style="edgeStyle=orthogonalEdgeStyle;html=1;exitX=1.001;exitY=0.629;exitDx=0;exitDy=0;entryX=0;entryY=0.5;entryDx=0;entryDy=0;entryPerimeter=0;exitPerimeter=0;" edge="1" parent="xNUSOTWQVAQGV8SW1RMr-1" source="30" target="45">
                    <mxGeometry relative="1" as="geometry"/>
                </mxCell>
                <mxCell id="30" value="" style="swimlane;startSize=0;" vertex="1" parent="xNUSOTWQVAQGV8SW1RMr-1">
                    <mxGeometry x="710" y="1070" width="160" height="142" as="geometry"/>
                </mxCell>
                <mxCell id="31" value="Production Management" style="sketch=0;html=1;dashed=0;whitespace=wrap;fillColor=#2875E2;strokeColor=#ffffff;points=[[0.005,0.63,0],[0.1,0.2,0],[0.9,0.2,0],[0.5,0,0],[0.995,0.63,0],[0.72,0.99,0],[0.5,1,0],[0.28,0.99,0]];verticalLabelPosition=bottom;align=center;verticalAlign=top;shape=mxgraph.kubernetes.icon;prIcon=pod;labelBackgroundColor=default;rounded=1;" vertex="1" parent="30">
                    <mxGeometry x="52.14000000000002" y="43" width="72.92" height="70" as="geometry"/>
                </mxCell>
                <mxCell id="32" value="HPA" style="sketch=0;html=1;dashed=0;whitespace=wrap;fillColor=#2875E2;strokeColor=#ffffff;points=[[0.005,0.63,0],[0.1,0.2,0],[0.9,0.2,0],[0.5,0,0],[0.995,0.63,0],[0.72,0.99,0],[0.5,1,0],[0.28,0.99,0]];verticalLabelPosition=bottom;align=center;verticalAlign=top;shape=mxgraph.kubernetes.icon;prIcon=hpa" vertex="1" parent="30">
                    <mxGeometry x="15.139999999999986" y="12" width="39.58" height="38" as="geometry"/>
                </mxCell>
                <mxCell id="37" style="edgeStyle=orthogonalEdgeStyle;html=1;entryX=0;entryY=0.5;entryDx=0;entryDy=0;entryPerimeter=0;" edge="1" parent="xNUSOTWQVAQGV8SW1RMr-1" source="34" target="35">
                    <mxGeometry relative="1" as="geometry"/>
                </mxCell>
                <mxCell id="34" value="Order Update&lt;br&gt;Topic" style="sketch=0;points=[[0,0,0],[0.25,0,0],[0.5,0,0],[0.75,0,0],[1,0,0],[0,1,0],[0.25,1,0],[0.5,1,0],[0.75,1,0],[1,1,0],[0,0.25,0],[0,0.5,0],[0,0.75,0],[1,0.25,0],[1,0.5,0],[1,0.75,0]];outlineConnect=0;fontColor=#232F3E;gradientColor=#FF4F8B;gradientDirection=north;fillColor=#BC1356;strokeColor=#ffffff;dashed=0;verticalLabelPosition=bottom;verticalAlign=top;align=center;html=1;fontSize=12;fontStyle=0;aspect=fixed;shape=mxgraph.aws4.resourceIcon;resIcon=mxgraph.aws4.sns;labelBackgroundColor=default;rounded=1;" vertex="1" parent="xNUSOTWQVAQGV8SW1RMr-1">
                    <mxGeometry x="920" y="1250" width="78" height="78" as="geometry"/>
                </mxCell>
                <mxCell id="38" style="edgeStyle=orthogonalEdgeStyle;html=1;entryX=0.75;entryY=0;entryDx=0;entryDy=0;dashed=1;dashPattern=8 8;exitX=1;exitY=0.5;exitDx=0;exitDy=0;exitPerimeter=0;" edge="1" parent="xNUSOTWQVAQGV8SW1RMr-1" source="35" target="13">
                    <mxGeometry relative="1" as="geometry">
                        <Array as="points">
                            <mxPoint x="1200" y="1289"/>
                            <mxPoint x="1200" y="530"/>
                            <mxPoint x="830" y="530"/>
                        </Array>
                    </mxGeometry>
                </mxCell>
                <mxCell id="35" value="Order Update&lt;br&gt;Queue" style="sketch=0;points=[[0,0,0],[0.25,0,0],[0.5,0,0],[0.75,0,0],[1,0,0],[0,1,0],[0.25,1,0],[0.5,1,0],[0.75,1,0],[1,1,0],[0,0.25,0],[0,0.5,0],[0,0.75,0],[1,0.25,0],[1,0.5,0],[1,0.75,0]];outlineConnect=0;fontColor=#232F3E;gradientColor=#FF4F8B;gradientDirection=north;fillColor=#BC1356;strokeColor=#ffffff;dashed=0;verticalLabelPosition=bottom;verticalAlign=top;align=center;html=1;fontSize=12;fontStyle=0;aspect=fixed;shape=mxgraph.aws4.resourceIcon;resIcon=mxgraph.aws4.sqs;labelBackgroundColor=default;rounded=1;" vertex="1" parent="xNUSOTWQVAQGV8SW1RMr-1">
                    <mxGeometry x="1060" y="1250" width="78" height="78" as="geometry"/>
                </mxCell>
                <mxCell id="43" value="Payments DB" style="sketch=0;points=[[0,0,0],[0.25,0,0],[0.5,0,0],[0.75,0,0],[1,0,0],[0,1,0],[0.25,1,0],[0.5,1,0],[0.75,1,0],[1,1,0],[0,0.25,0],[0,0.5,0],[0,0.75,0],[1,0.25,0],[1,0.5,0],[1,0.75,0]];outlineConnect=0;fontColor=#232F3E;gradientColor=#4D72F3;gradientDirection=north;fillColor=#3334B9;strokeColor=#ffffff;dashed=0;verticalLabelPosition=bottom;verticalAlign=top;align=center;html=1;fontSize=12;fontStyle=0;aspect=fixed;shape=mxgraph.aws4.resourceIcon;resIcon=mxgraph.aws4.rds;labelBackgroundColor=default;rounded=1;spacingTop=-4;" vertex="1" parent="xNUSOTWQVAQGV8SW1RMr-1">
                    <mxGeometry x="1060" y="812" width="78" height="78" as="geometry"/>
                </mxCell>
                <mxCell id="45" value="Productions DB" style="sketch=0;points=[[0,0,0],[0.25,0,0],[0.5,0,0],[0.75,0,0],[1,0,0],[0,1,0],[0.25,1,0],[0.5,1,0],[0.75,1,0],[1,1,0],[0,0.25,0],[0,0.5,0],[0,0.75,0],[1,0.25,0],[1,0.5,0],[1,0.75,0]];outlineConnect=0;fontColor=#232F3E;gradientColor=#4D72F3;gradientDirection=north;fillColor=#3334B9;strokeColor=#ffffff;dashed=0;verticalLabelPosition=bottom;verticalAlign=top;align=center;html=1;fontSize=12;fontStyle=0;aspect=fixed;shape=mxgraph.aws4.resourceIcon;resIcon=mxgraph.aws4.rds;labelBackgroundColor=default;rounded=1;spacingTop=-4;" vertex="1" parent="xNUSOTWQVAQGV8SW1RMr-1">
                    <mxGeometry x="1060" y="1120" width="78" height="78" as="geometry"/>
                </mxCell>
            </root>
        </mxGraphModel>
    </diagram>
</mxfile>